<svg width="232" height="50" viewBox="0 0 232 50" fill="none" xmlns="http://www.w3.org/2000/svg">
<path d="M37.8863 42.742C36.7605 42.742 35.8116 42.3721 35.0396 41.6322C34.2997 40.8924 33.9298 39.9435 33.9298 38.7855C33.9298 37.6275 34.2997 36.6947 35.0396 35.987C35.8116 35.2472 36.7605 34.8773 37.8863 34.8773C39.0121 34.8773 39.945 35.2472 40.6848 35.987C41.4568 36.7268 41.8428 37.6597 41.8428 38.7855C41.8428 39.9435 41.4568 40.8924 40.6848 41.6322C39.945 42.3721 39.0121 42.742 37.8863 42.742Z" fill="#FFC36A"/>
<path d="M46.9168 50V16.073H50.2385V50H46.9168Z" fill="#FFC36A"/>
<path d="M62.2385 45.1503L67.0883 28.1761H71.6955L76.521 45.1503H73.8294L72.714 41.1492H66.0698L64.9544 45.1503H62.2385ZM66.7245 38.7243H72.0593L69.5859 29.8008H69.1979L66.7245 38.7243Z" fill="#111827"/>
<path d="M84.4464 45.4897C83.2986 45.4897 82.2559 45.2472 81.3183 44.7623C80.3969 44.2773 79.6613 43.5741 79.1117 42.6526C78.5782 41.7312 78.3115 40.6238 78.3115 39.3306V39.0153C78.3115 37.722 78.5782 36.6228 79.1117 35.7175C79.6613 34.796 80.3969 34.0928 81.3183 33.6078C82.2559 33.1067 83.2986 32.8561 84.4464 32.8561C85.5942 32.8561 86.5722 33.0663 87.3805 33.4866C88.1888 33.9069 88.8354 34.4646 89.3204 35.1598C89.8215 35.8549 90.1449 36.6228 90.2904 37.4634L87.8655 37.9726C87.7846 37.4391 87.6149 36.9542 87.3563 36.5177C87.0976 36.0812 86.7339 35.7337 86.2651 35.475C85.7962 35.2163 85.2062 35.087 84.4949 35.087C83.7998 35.087 83.1693 35.2487 82.6035 35.572C82.0539 35.8791 81.6174 36.3318 81.2941 36.9299C80.9707 37.5119 80.8091 38.2232 80.8091 39.0638V39.2821C80.8091 40.1227 80.9707 40.8421 81.2941 41.4402C81.6174 42.0383 82.0539 42.491 82.6035 42.7981C83.1693 43.1053 83.7998 43.2588 84.4949 43.2588C85.5457 43.2588 86.3459 42.9921 86.8955 42.4586C87.4452 41.909 87.7927 41.2139 87.9382 40.3732L90.3631 40.931C90.1691 41.7554 89.8215 42.5152 89.3204 43.2104C88.8354 43.9055 88.1888 44.4632 87.3805 44.8835C86.5722 45.2877 85.5942 45.4897 84.4464 45.4897Z" fill="#111827"/>
<path d="M93.2438 45.1503V28.1761H95.7414V34.893H96.1294C96.291 34.5859 96.5174 34.2868 96.8083 33.9958C97.1155 33.7048 97.5116 33.4704 97.9965 33.2926C98.4977 33.0986 99.1281 33.0016 99.8879 33.0016C100.793 33.0016 101.593 33.2037 102.289 33.6078C103 34.012 103.558 34.5859 103.962 35.3295C104.366 36.057 104.568 36.938 104.568 37.9726V45.1503H102.07V38.1666C102.07 37.132 101.812 36.3722 101.294 35.8872C100.777 35.3861 100.066 35.1355 99.1605 35.1355C98.1259 35.1355 97.2933 35.475 96.6628 36.154C96.0485 36.8329 95.7414 37.819 95.7414 39.1123V45.1503H93.2438Z" fill="#111827"/>
<path d="M112.317 45.1503C111.589 45.1503 111.007 44.932 110.571 44.4955C110.151 44.0591 109.941 43.4771 109.941 42.7496V35.3053H106.643V33.1956H109.941V29.2431H112.438V33.1956H116.003V35.3053H112.438V42.3131C112.438 42.7981 112.664 43.0406 113.117 43.0406H115.615V45.1503H112.317Z" fill="#111827"/>
<path d="M123.991 45.4897C122.779 45.4897 121.72 45.2392 120.814 44.738C119.909 44.2207 119.198 43.5013 118.681 42.5799C118.179 41.6423 117.929 40.5592 117.929 39.3306V39.0396C117.929 37.7948 118.179 36.7117 118.681 35.7902C119.182 34.8526 119.877 34.1332 120.766 33.6321C121.671 33.1148 122.714 32.8561 123.894 32.8561C125.042 32.8561 126.044 33.1148 126.901 33.6321C127.774 34.1332 128.453 34.8364 128.938 35.7417C129.423 36.647 129.665 37.7059 129.665 38.9183V39.864H120.475C120.507 40.9148 120.855 41.7554 121.518 42.3859C122.197 43.0002 123.037 43.3073 124.039 43.3073C124.977 43.3073 125.68 43.0972 126.149 42.6769C126.634 42.2566 127.006 41.7716 127.265 41.222L129.326 42.2889C129.099 42.7415 128.768 43.2184 128.332 43.7196C127.911 44.2207 127.353 44.641 126.658 44.9805C125.963 45.32 125.074 45.4897 123.991 45.4897ZM120.499 37.9484H127.119C127.054 37.0431 126.731 36.3399 126.149 35.8387C125.567 35.3214 124.807 35.0628 123.87 35.0628C122.932 35.0628 122.164 35.3214 121.566 35.8387C120.984 36.3399 120.629 37.0431 120.499 37.9484Z" fill="#111827"/>
<path d="M132.672 45.1503V33.1956H135.121V34.99H135.509C135.735 34.505 136.139 34.0524 136.721 33.6321C137.303 33.2118 138.168 33.0016 139.316 33.0016C140.221 33.0016 141.021 33.2037 141.716 33.6078C142.428 34.012 142.985 34.5859 143.39 35.3295C143.794 36.057 143.996 36.938 143.996 37.9726V45.1503H141.498V38.1666C141.498 37.132 141.24 36.3722 140.722 35.8872C140.205 35.3861 139.494 35.1355 138.588 35.1355C137.554 35.1355 136.721 35.475 136.091 36.154C135.476 36.8329 135.169 37.819 135.169 39.1123V45.1503H132.672Z" fill="#111827"/>
<path d="M154.501 45.4897C153.337 45.4897 152.44 45.2796 151.81 44.8593C151.195 44.439 150.735 43.9701 150.427 43.4528H150.039V45.1503H147.59V28.1761H150.088V34.8203H150.476C150.67 34.497 150.929 34.1898 151.252 33.8988C151.575 33.5917 152.004 33.3411 152.537 33.1471C153.071 32.9531 153.725 32.8561 154.501 32.8561C155.504 32.8561 156.425 33.0986 157.266 33.5836C158.106 34.0686 158.777 34.7718 159.278 35.6932C159.779 36.6147 160.03 37.714 160.03 38.9911V39.3548C160.03 40.6481 159.771 41.7554 159.254 42.6769C158.753 43.5822 158.082 44.2773 157.241 44.7623C156.417 45.2472 155.504 45.4897 154.501 45.4897ZM153.774 43.3073C154.857 43.3073 155.746 42.9598 156.441 42.2647C157.152 41.5695 157.508 40.5753 157.508 39.2821V39.0638C157.508 37.7867 157.161 36.8006 156.465 36.1055C155.77 35.4103 154.873 35.0628 153.774 35.0628C152.707 35.0628 151.818 35.4103 151.106 36.1055C150.411 36.8006 150.064 37.7867 150.064 39.0638V39.2821C150.064 40.5753 150.411 41.5695 151.106 42.2647C151.818 42.9598 152.707 43.3073 153.774 43.3073Z" fill="#111827"/>
<path d="M168.605 45.4897C167.392 45.4897 166.334 45.2392 165.428 44.738C164.523 44.2207 163.812 43.5013 163.294 42.5799C162.793 41.6423 162.543 40.5592 162.543 39.3306V39.0396C162.543 37.7948 162.793 36.7117 163.294 35.7902C163.796 34.8526 164.491 34.1332 165.38 33.6321C166.285 33.1148 167.328 32.8561 168.508 32.8561C169.656 32.8561 170.658 33.1148 171.515 33.6321C172.388 34.1332 173.067 34.8364 173.552 35.7417C174.037 36.647 174.279 37.7059 174.279 38.9183V39.864H165.089C165.121 40.9148 165.469 41.7554 166.132 42.3859C166.811 43.0002 167.651 43.3073 168.653 43.3073C169.591 43.3073 170.294 43.0972 170.763 42.6769C171.248 42.2566 171.62 41.7716 171.878 41.222L173.94 42.2889C173.713 42.7415 173.382 43.2184 172.945 43.7196C172.525 44.2207 171.967 44.641 171.272 44.9805C170.577 45.32 169.688 45.4897 168.605 45.4897ZM165.113 37.9484H171.733C171.668 37.0431 171.345 36.3399 170.763 35.8387C170.181 35.3214 169.421 35.0628 168.484 35.0628C167.546 35.0628 166.778 35.3214 166.18 35.8387C165.598 36.3399 165.242 37.0431 165.113 37.9484Z" fill="#111827"/>
<path d="M177.286 45.1503V33.1956H179.735V34.602H180.123C180.317 34.1009 180.624 33.7372 181.044 33.5109C181.481 33.2684 182.014 33.1471 182.645 33.1471H184.075V35.4023H182.548C181.739 35.4023 181.076 35.6286 180.559 36.0812C180.042 36.5177 179.783 37.1967 179.783 38.1181V45.1503H177.286Z" fill="#111827"/>
<path d="M185.655 39.2336V38.8698C185.655 37.6089 185.905 36.5339 186.407 35.6447C186.924 34.7556 187.603 34.0686 188.443 33.5836C189.284 33.0986 190.206 32.8561 191.208 32.8561C192.372 32.8561 193.261 33.0744 193.875 33.5109C194.506 33.9473 194.966 34.4161 195.257 34.9173H195.645V33.1956H198.07V47.5994C198.07 48.3268 197.852 48.9088 197.415 49.3453C196.995 49.7818 196.413 50 195.67 50H187.619V47.8176H194.894C195.362 47.8176 195.597 47.5751 195.597 47.0902V43.2831H195.209C195.031 43.5741 194.78 43.8732 194.457 44.1803C194.134 44.4875 193.705 44.738 193.172 44.932C192.655 45.126 192 45.223 191.208 45.223C190.206 45.223 189.276 44.9886 188.419 44.5198C187.579 44.0348 186.908 43.3478 186.407 42.4586C185.905 41.5534 185.655 40.4783 185.655 39.2336ZM191.887 43.0406C192.97 43.0406 193.859 42.7011 194.554 42.0222C195.265 41.327 195.621 40.3732 195.621 39.1608V38.9426C195.621 37.6978 195.273 36.744 194.578 36.0812C193.883 35.4023 192.986 35.0628 191.887 35.0628C190.82 35.0628 189.931 35.4023 189.219 36.0812C188.524 36.744 188.177 37.6978 188.177 38.9426V39.1608C188.177 40.3732 188.524 41.327 189.219 42.0222C189.931 42.7011 190.82 43.0406 191.887 43.0406Z" fill="#111827"/>
</svg>
