<svg width="21" height="20" viewBox="0 0 21 20" fill="none" xmlns="http://www.w3.org/2000/svg">
<g id="heroicons-solid:globe-alt">
<path id="Vector" fill-rule="evenodd" clip-rule="evenodd" d="M4.583 9H6.529C6.618 7.454 6.912 6.03 7.366 4.882C6.63501 5.32992 6.00842 5.92919 5.52838 6.6395C5.04834 7.34982 4.72598 8.1547 4.583 9ZM10.5 2C8.37827 2 6.34344 2.84285 4.84315 4.34315C3.34285 5.84344 2.5 7.87827 2.5 10C2.5 12.1217 3.34285 14.1566 4.84315 15.6569C6.34344 17.1571 8.37827 18 10.5 18C12.6217 18 14.6566 17.1571 16.1569 15.6569C17.6571 14.1566 18.5 12.1217 18.5 10C18.5 7.87827 17.6571 5.84344 16.1569 4.34315C14.6566 2.84285 12.6217 2 10.5 2ZM10.5 4C10.424 4 10.268 4.032 10.035 4.262C9.797 4.496 9.538 4.885 9.298 5.444C8.909 6.351 8.625 7.586 8.532 9H12.468C12.375 7.586 12.091 6.351 11.702 5.444C11.462 4.884 11.202 4.496 10.965 4.262C10.732 4.032 10.576 4 10.5 4ZM14.471 9C14.382 7.454 14.088 6.03 13.634 4.882C14.365 5.32992 14.9916 5.92919 15.4716 6.6395C15.9517 7.34982 16.274 8.1547 16.417 9H14.471ZM12.468 11H8.532C8.625 12.414 8.909 13.649 9.298 14.556C9.538 15.116 9.798 15.504 10.035 15.738C10.268 15.968 10.424 16 10.5 16C10.576 16 10.732 15.968 10.965 15.738C11.203 15.504 11.463 15.115 11.702 14.556C12.091 13.649 12.375 12.414 12.468 11ZM13.634 15.118C14.088 13.971 14.382 12.546 14.471 11H16.417C16.274 11.8453 15.9517 12.6502 15.4716 13.3605C14.9916 14.0708 14.365 14.6701 13.634 15.118ZM7.366 15.118C6.912 13.97 6.618 12.546 6.53 11H4.583C4.72598 11.8453 5.04834 12.6502 5.52838 13.3605C6.00842 14.0708 6.63501 14.6701 7.366 15.118Z" fill="black"/>
</g>
</svg>
