<svg width="144" height="143" viewBox="0 0 144 143" fill="none" xmlns="http://www.w3.org/2000/svg">
<g filter="url(#filter0_dd_907_283)">
<rect x="10" y="0.097168" width="124" height="124" rx="41.0443" fill="#38BDF8" shape-rendering="crispEdges"/>
<path d="M113.892 62.1059C113.892 56.4966 106.941 51.1808 96.2846 47.8843C98.7439 36.9074 97.6509 28.1743 92.8349 25.3783C91.7249 24.7225 90.4269 24.4118 89.0095 24.4118V28.2606C89.7951 28.2606 90.427 28.4159 90.9564 28.7093C93.2789 30.0555 94.2865 35.1815 93.501 41.7745C93.3131 43.3969 93.0057 45.1056 92.63 46.8487C89.2827 46.0203 85.6281 45.3817 81.7856 44.9675C79.4801 41.7745 77.0892 38.875 74.6812 36.3379C80.2486 31.1084 85.4744 28.2433 89.0266 28.2433V24.3945C84.3302 24.3945 78.1822 27.7773 71.9658 33.6455C65.7495 27.8119 59.6015 24.4636 54.9051 24.4636V28.3124C58.4402 28.3124 63.6831 31.1601 69.2505 36.3552C66.8596 38.8923 64.4687 41.7745 62.1973 44.9675C58.3377 45.3817 54.6831 46.0203 51.3358 46.866C50.943 45.1401 50.6527 43.4659 50.4478 41.8608C49.6451 35.2678 50.6356 30.1418 52.9411 28.7784C53.4535 28.4677 54.1195 28.3296 54.9051 28.3296V24.4808C53.4706 24.4808 52.1726 24.7915 51.0455 25.4473C46.2466 28.2433 45.1707 36.9592 47.647 47.9015C37.0246 51.2153 30.1081 56.5139 30.1081 62.1059C30.1081 67.7151 37.0588 73.0309 47.7153 76.3274C45.2561 87.3043 46.3491 96.0374 51.165 98.8334C52.2751 99.4893 53.573 99.7999 55.0076 99.7999C59.704 99.7999 65.852 96.4171 72.0683 90.549C78.2846 96.3826 84.4326 99.7309 89.129 99.7309C90.5636 99.7309 91.8615 99.4202 92.9886 98.7644C97.7875 95.9684 98.8634 87.2525 96.3871 76.3102C106.975 73.0137 113.892 67.6978 113.892 62.1059ZM91.6566 50.594C91.0247 52.8204 90.2391 55.1159 89.351 57.4114C88.6509 56.0306 87.9165 54.6499 87.1139 53.2692C86.3283 51.8884 85.4915 50.5422 84.6547 49.2305C87.0797 49.5929 89.4194 50.0417 91.6566 50.594ZM83.8349 68.975C82.5028 71.305 81.1366 73.5142 79.7192 75.568C77.1746 75.7924 74.5958 75.9132 72 75.9132C69.4212 75.9132 66.8425 75.7924 64.315 75.5853C62.8975 73.5314 61.5142 71.3395 60.1821 69.0268C58.8842 66.7658 57.7059 64.4704 56.6299 62.1576C57.6888 59.8449 58.8842 57.5322 60.1651 55.2712C61.4971 52.9412 62.8633 50.7321 64.2808 48.6782C66.8254 48.4538 69.4042 48.333 72 48.333C74.5787 48.333 77.1575 48.4538 79.685 48.661C81.1025 50.7148 82.4858 52.9067 83.8178 55.2194C85.1158 57.4804 86.2941 59.7759 87.37 62.0886C86.2941 64.4013 85.1157 66.7141 83.8349 68.975ZM89.351 66.7313C90.2732 69.0441 91.0588 71.3568 91.7078 73.6005C89.4706 74.1528 87.1139 74.6188 84.6717 74.9812C85.5085 73.6523 86.3454 72.2888 87.1309 70.8908C87.9165 69.5101 88.6509 68.1121 89.351 66.7313ZM72.0341 85.1469C70.4459 83.49 68.8577 81.6433 67.2865 79.6239C68.8235 79.693 70.3947 79.7448 71.9829 79.7448C73.5882 79.7448 75.1765 79.7102 76.7305 79.6239C75.1935 81.6433 73.6053 83.49 72.0341 85.1469ZM59.3282 74.9812C56.9032 74.6188 54.5635 74.17 52.3263 73.6177C52.9582 71.3913 53.7438 69.0958 54.6318 66.8004C55.332 68.1811 56.0664 69.5618 56.869 70.9426C57.6717 72.3233 58.4914 73.6695 59.3282 74.9812ZM71.9488 39.0648C73.537 40.7217 75.1252 42.5685 76.6964 44.5878C75.1594 44.5187 73.5882 44.467 72 44.467C70.3947 44.467 68.8064 44.5015 67.2524 44.5878C68.7894 42.5685 70.3776 40.7217 71.9488 39.0648ZM59.3112 49.2305C58.4744 50.5595 57.6375 51.9229 56.852 53.3209C56.0664 54.7017 55.332 56.0824 54.6318 57.4631C53.7096 55.1504 52.9241 52.8377 52.2751 50.594C54.5123 50.0589 56.869 49.5929 59.3112 49.2305ZM43.8557 70.839C37.8102 68.2329 33.8994 64.8156 33.8994 62.1059C33.8994 59.3962 37.8102 55.9616 43.8557 53.3727C45.3244 52.7341 46.9297 52.1646 48.5863 51.6295C49.5597 55.0123 50.8406 58.5332 52.4288 62.1404C50.8576 65.7303 49.5939 69.2339 48.6375 72.5994C46.9468 72.0644 45.3415 71.4776 43.8557 70.839ZM53.0436 95.5024C50.721 94.1562 49.7134 89.0302 50.499 82.4372C50.6869 80.8148 50.9943 79.1062 51.37 77.363C54.7172 78.1914 58.3719 78.83 62.2144 79.2442C64.5199 82.4372 66.9108 85.3367 69.3188 87.8738C63.7514 93.1034 58.5256 95.9684 54.9734 95.9684C54.2049 95.9511 53.5559 95.7958 53.0436 95.5024ZM93.5522 82.3509C94.3549 88.9439 93.3643 94.0699 91.0588 95.4334C90.5465 95.744 89.8805 95.8821 89.0949 95.8821C85.5598 95.8821 80.3169 93.0343 74.7495 87.8393C77.1404 85.3022 79.5313 82.4199 81.8027 79.227C85.6622 78.8128 89.3169 78.1742 92.6641 77.3285C93.0569 79.0716 93.3643 80.7458 93.5522 82.3509ZM100.127 70.839C98.6585 71.4776 97.0531 72.0472 95.3966 72.5822C94.4232 69.1994 93.1423 65.6785 91.5541 62.0713C93.1252 58.4814 94.389 54.9778 95.3454 51.6123C97.0361 52.1473 98.6414 52.7341 100.144 53.3727C106.19 55.9788 110.101 59.3962 110.101 62.1059C110.084 64.8156 106.173 68.2501 100.127 70.839Z" fill="white"/>
<path d="M71.9822 69.9929C76.2926 69.9929 79.7868 66.4616 79.7868 62.1055C79.7868 57.7493 76.2926 54.218 71.9822 54.218C67.6719 54.218 64.1777 57.7493 64.1777 62.1055C64.1777 66.4616 67.6719 69.9929 71.9822 69.9929Z" fill="white"/>
</g>
<defs>
<filter id="filter0_dd_907_283" x="0.87904" y="0.097168" width="142.242" height="142.242" filterUnits="userSpaceOnUse" color-interpolation-filters="sRGB">
<feFlood flood-opacity="0" result="BackgroundImageFix"/>
<feColorMatrix in="SourceAlpha" type="matrix" values="0 0 0 0 0 0 0 0 0 0 0 0 0 0 0 0 0 0 127 0" result="hardAlpha"/>
<feOffset dy="9.12096"/>
<feGaussianBlur stdDeviation="4.56048"/>
<feComposite in2="hardAlpha" operator="out"/>
<feColorMatrix type="matrix" values="0 0 0 0 0.027451 0 0 0 0 0.494118 0 0 0 0 0.854902 0 0 0 0.2 0"/>
<feBlend mode="normal" in2="BackgroundImageFix" result="effect1_dropShadow_907_283"/>
<feColorMatrix in="SourceAlpha" type="matrix" values="0 0 0 0 0 0 0 0 0 0 0 0 0 0 0 0 0 0 127 0" result="hardAlpha"/>
<feOffset dy="9.12096"/>
<feGaussianBlur stdDeviation="4.56048"/>
<feComposite in2="hardAlpha" operator="out"/>
<feColorMatrix type="matrix" values="0 0 0 0 0.0313726 0 0 0 0 0.639216 0 0 0 0 0.901961 0 0 0 0.1 0"/>
<feBlend mode="normal" in2="effect1_dropShadow_907_283" result="effect2_dropShadow_907_283"/>
<feBlend mode="normal" in="SourceGraphic" in2="effect2_dropShadow_907_283" result="shape"/>
</filter>
</defs>
</svg>
