<svg width="143" height="143" viewBox="0 0 143 143" fill="none" xmlns="http://www.w3.org/2000/svg">
<g filter="url(#filter0_dd_907_290)">
<rect x="9.5" y="0.097168" width="124" height="124" rx="41.0443" fill="#83CD29" shape-rendering="crispEdges"/>
<path d="M71.5 103.989C70.2764 103.99 69.0743 103.692 68.0145 103.127L56.9231 97.0619C55.2678 96.2061 56.0744 95.9039 56.6218 95.7273C58.3823 95.2249 60.0679 94.5212 61.6395 93.6327C61.7711 93.5765 61.916 93.5522 62.0605 93.5621C62.205 93.5721 62.3445 93.6159 62.4655 93.6895L70.9882 98.3665C71.1469 98.4441 71.3237 98.4846 71.5032 98.4846C71.6828 98.4846 71.8596 98.4441 72.0183 98.3665L105.254 80.646C105.409 80.5599 105.538 80.438 105.627 80.2922C105.716 80.1464 105.763 79.9816 105.762 79.8142V44.3671C105.762 44.197 105.715 44.0297 105.625 43.8814C105.535 43.7331 105.405 43.6087 105.247 43.5203L72.0118 25.8148C71.8551 25.7332 71.6783 25.6904 71.4984 25.6904C71.3185 25.6904 71.1417 25.7332 70.985 25.8148L37.7689 43.5263C37.6105 43.6129 37.4789 43.7357 37.387 43.883C37.2951 44.0304 37.2459 44.1971 37.2442 44.3671V79.7992C37.2446 79.9663 37.2931 80.1303 37.3848 80.2743C37.4764 80.4184 37.6079 80.5374 37.7657 80.6191L46.8811 85.4786C51.8211 87.7588 54.8466 85.0717 54.8466 82.3726V47.3894C54.8466 47.1513 54.949 46.923 55.1313 46.7546C55.3135 46.5863 55.5607 46.4917 55.8184 46.4917H60.0296C60.2873 46.4917 60.5345 46.5863 60.7167 46.7546C60.899 46.923 61.0014 47.1513 61.0014 47.3894V82.3756C61.0014 88.465 57.4122 91.951 51.1603 91.951C48.4632 91.9944 45.8083 91.3281 43.5058 90.0299L34.7693 85.4008C33.7087 84.8303 32.8287 84.0127 32.2171 83.0298C31.6055 82.0469 31.2837 80.9329 31.2838 79.7992V44.3671C31.2807 43.2316 31.6011 42.1154 32.2129 41.1305C32.8247 40.1457 33.7064 39.3269 34.7693 38.7565L68.008 21.03C69.0787 20.4889 70.2796 20.2053 71.5 20.2053C72.7205 20.2053 73.9213 20.4889 74.992 21.03L108.227 38.7565C109.288 39.326 110.168 40.1423 110.78 41.1242C111.393 42.1061 111.715 43.2191 111.716 44.3522V79.7992C111.714 80.9329 111.391 82.0465 110.779 83.0292C110.167 84.0119 109.288 84.8295 108.227 85.4008L74.992 103.127C73.9303 103.693 72.7258 103.99 71.5 103.989Z" fill="white"/>
<path d="M65.1949 67.9427C65.1949 67.7046 65.2973 67.4763 65.4796 67.3079C65.6618 67.1396 65.909 67.045 66.1667 67.045H70.4653C70.695 67.0457 70.917 67.1215 71.0919 67.259C71.2669 67.3965 71.3834 67.5868 71.4209 67.7961C72.0688 71.8387 74.0124 73.8765 82.8007 73.8765C89.8008 73.8765 92.7843 72.4132 92.7843 68.981C92.7843 67.0031 91.9388 65.5339 81.0579 64.5494C71.9619 63.7176 66.3384 61.8563 66.3384 55.1416C66.3384 48.9475 71.991 45.252 81.4661 45.252C92.1137 45.252 97.3841 48.6662 98.0514 55.9914C98.0616 56.1137 98.0445 56.2366 98.0013 56.3526C97.9581 56.4686 97.8896 56.5751 97.8 56.6657C97.7105 56.7562 97.6018 56.8289 97.4807 56.8792C97.3596 56.9294 97.2286 56.9562 97.0958 56.9579H92.7681C92.551 56.9551 92.3411 56.8852 92.172 56.7594C92.0029 56.6336 91.8843 56.459 91.8351 56.2637C90.8018 52.0116 88.2719 50.6531 81.4693 50.6531C73.8245 50.6531 72.9369 53.1128 72.9369 54.956C72.9369 57.1883 73.9865 57.8406 84.307 59.1004C94.5205 60.3482 99.373 62.1137 99.373 68.7446C99.373 75.4355 93.3349 79.2656 82.8039 79.2656C68.2431 79.2836 65.1949 73.1164 65.1949 67.9427Z" fill="white"/>
</g>
<defs>
<filter id="filter0_dd_907_290" x="0.37904" y="0.097168" width="142.242" height="142.242" filterUnits="userSpaceOnUse" color-interpolation-filters="sRGB">
<feFlood flood-opacity="0" result="BackgroundImageFix"/>
<feColorMatrix in="SourceAlpha" type="matrix" values="0 0 0 0 0 0 0 0 0 0 0 0 0 0 0 0 0 0 127 0" result="hardAlpha"/>
<feOffset dy="9.12096"/>
<feGaussianBlur stdDeviation="4.56048"/>
<feComposite in2="hardAlpha" operator="out"/>
<feColorMatrix type="matrix" values="0 0 0 0 0.513726 0 0 0 0 0.803922 0 0 0 0 0.160784 0 0 0 0.2 0"/>
<feBlend mode="normal" in2="BackgroundImageFix" result="effect1_dropShadow_907_290"/>
<feColorMatrix in="SourceAlpha" type="matrix" values="0 0 0 0 0 0 0 0 0 0 0 0 0 0 0 0 0 0 127 0" result="hardAlpha"/>
<feOffset dy="9.12096"/>
<feGaussianBlur stdDeviation="4.56048"/>
<feComposite in2="hardAlpha" operator="out"/>
<feColorMatrix type="matrix" values="0 0 0 0 0.513726 0 0 0 0 0.803922 0 0 0 0 0.160784 0 0 0 0.2 0"/>
<feBlend mode="normal" in2="effect1_dropShadow_907_290" result="effect2_dropShadow_907_290"/>
<feBlend mode="normal" in="SourceGraphic" in2="effect2_dropShadow_907_290" result="shape"/>
</filter>
</defs>
</svg>
